#!OML:ASF X:\für Bonn\!DataBase\2005_08_12_Daniel\c3d\Daniel.ASF
:FULLY-SPECIFIED
:DEGREES
93
root 4.58224 16.9143 -0.0302063 -845.302 -72.7956 796.74
lowerback 50.7224 6.1374 -2.62269
upperback 12.6461 1.5218 -11.5958
thorax -6.58315 -0.0450586 -12.0658
lowerneck 9.17065 2.16725 -4.18949
upperneck 19.1138 0.8306 7.55592
head 4.15927 0.0905228 3.04114
rclavicle -3.27995e-014 8.74653e-014
rhumerus -27.3437 18.275 -78.5706
rradius 72.7652
rwrist -0.862861
rhand -33.4231 15.5797
rfingers 7.12502
rthumb -6.6227 -14.2968
lclavicle -3.27995e-014 8.74653e-014
lhumerus -54.0792 19.9309 54.349
lradius 112.406
lwrist 199.877
lhand -12.3848 10.2065
lfingers 7.12502
lthumb 13.6862 39.7365
rfemur 31.8158 13.8443 10.9268
rtibia 27.0784
rfoot -9.79014 3.1497
rtoes -9.91379
lfemur -84.696 6.00858 -27.083
ltibia 90.7254
lfoot 17.8139 6.89914
ltoes -15.1769
94
root 4.5321 16.9492 -0.039348 -844.132 -72.459 795.429
lowerback 51.1625 6.39026 -2.85066
upperback 12.6334 1.63375 -11.641
thorax -6.6279 0.0031832 -12.0772
lowerneck 9.00707 2.1824 -4.4971
upperneck 19.5054 0.731588 8.09635
head 4.29963 0.0442555 3.26968
rclavicle -2.78299e-014 -3.02153e-014
rhumerus -28.5563 18.2333 -78.5324
rradius 74.8015
rwrist -1.43487
rhand -33.1078 15.8207
rfingers 7.12502
rthumb -6.31826 -14.0651
lclavicle -2.78299e-014 -3.02153e-014
lhumerus -54.226 20.9618 54.4294
lradius 112.87
lwrist 200.283
lhand -12.271 9.89131
lfingers 7.12502
lthumb 13.7958 39.4139
rfemur 32.8633 13.8571 10.6075
rtibia 25.8876
rfoot -9.55089 2.82875
rtoes -10.0545
lfemur -84.4462 5.47892 -26.6867
ltibia 85.2968
lfoot 15.734 7.18285
ltoes -16.5246
95
root 4.48606 16.9832 -0.051105 -843.244 -72.2985 794.424
lowerback 51.5977 6.57749 -2.92686
upperback 12.6107 1.75335 -11.654
thorax -6.68122 0.0595635 -12.1288
lowerneck 8.71758 2.20779 -4.75538
upperneck 19.9773 0.652836 8.58813
head 4.48527 0.0134994 3.47783
rclavicle -1.47101e-014 3.49861e-014
rhumerus -29.7465 18.0712 -78.6321
rradius 76.8034
rwrist -2.14834
rhand -32.5886 16.0165
rfingers 7.12502
rthumb -5.81698 -13.8836
lclavicle -1.47101e-014 3.49861e-014
lhumerus -54.314 22.0291 54.6381
lradius 113.284
lwrist 200.873
lhand -12.0702 9.83906
lfingers 7.12502
lthumb 13.9894 39.3484
rfemur 33.9979 13.8783 10.5873
rtibia 24.5114
rfoot -9.21403 2.37405
rtoes -10.1592
lfemur -83.8308 4.98035 -25.9939
ltibia 79.5326
lfoot 14.243 6.88623
ltoes -12.617
96
root 4.45025 17.0243 -0.065971 -842.591 -72.3016 793.655
lowerback 52.0855 6.70921 -2.86634
upperback 12.5527 1.88136 -11.6258
thorax -6.77767 0.123601 -12.2059
lowerneck 8.48034 2.25569 -4.99364
upperneck 20.4417 0.599179 9.08351
head 4.65954 -0.00434985 3.68511
rclavicle 1.23246e-014 -3.97569e-014
rhumerus -30.8239 17.5893 -78.8948
rradius 78.5177
rwrist -2.7683
rhand -31.9664 16.3153
rfingers 7.12502
rthumb -5.21634 -13.6005
lclavicle 1.23246e-014 -3.97569e-014
lhumerus -54.3681 23.1184 54.9747
lradius 113.687
lwrist 201.526
lhand -11.7558 9.96081
lfingers 7.12502
lthumb 14.2923 39.4489
rfemur 35.1707 13.9005 10.8331
rtibia 23.0437
rfoot -8.80795 1.79858
rtoes -10.2311
lfemur -82.8542 4.48018 -24.9936
ltibia 73.491
lfoot 11.5724 6.3543
ltoes -12.8516
97
root 4.41417 17.0615 -0.0828995 -842.113 -72.4275 793.062
lowerback 52.5515 6.81182 -2.73099
upperback 12.4953 2.02845 -11.5498
thorax -6.86455 0.197662 -12.2706
lowerneck 8.29824 2.32068 -5.19627
upperneck 20.8783 0.574332 9.52978
head 4.81605 -0.00862875 3.87168
rclavicle 2.38542e-014 -2.22639e-014
rhumerus -31.723 16.8895 -79.2402
rradius 79.9272
rwrist -3.20654
rhand -31.3061 16.6252
rfingers 7.12502
rthumb -4.57874 -13.3053
lclavicle 2.38542e-014 -2.22639e-014
lhumerus -54.4017 24.2463 55.4338
lradius 114.102
lwrist 202.182
lhand -11.4409 10.2772
lfingers 7.12502
lthumb 14.5957 39.7436
rfemur 36.4109 13.8801 11.2371
rtibia 21.4524
rfoot -8.32083 1.20398
rtoes -10.183
lfemur -81.5528 3.98702 -23.79
ltibia 67.3612
lfoot 8.13587 5.52878
ltoes -16.6756
98
root 4.37162 17.0902 -0.100523 -841.723 -72.6355 792.556
lowerback 52.9756 6.88246 -2.52529
upperback 12.4521 2.18562 -11.464
thorax -6.92734 0.278252 -12.3591
lowerneck 8.15665 2.39627 -5.27303
upperneck 21.3159 0.574004 9.89939
head 4.96746 0.00354259 4.01335
rclavicle -5.1684e-014 1.11319e-014
rhumerus -32.6 16.0801 -79.6976
rradius 81.1592
rwrist -3.57944
rhand -30.7289 16.9701
rfingers 7.12502
rthumb -4.02133 -12.9717
lclavicle -5.1684e-014 1.11319e-014
lhumerus -54.36 25.3423 55.9812
lradius 114.516
lwrist 202.762
lhand -11.1216 10.7452
lfingers 7.12502
lthumb 14.9034 40.1891
rfemur 37.7343 13.8197 11.7361
rtibia 19.7403
rfoot -7.79748 0.558191
rtoes -10.048
lfemur -79.9843 3.4709 -22.4663
ltibia 61.3836
lfoot 3.94803 4.77532
ltoes -19.9582
99
root 4.33066 17.1163 -0.118795 -841.404 -72.922 792.091
lowerback 53.4189 6.92345 -2.26126
upperback 12.3993 2.34509 -11.3518
thorax -7.00001 0.360519 -12.4465
lowerneck 8.13111 2.49597 -5.29621
upperneck 21.7019 0.608271 10.2389
head 5.08275 0.0316011 4.13572
rclavicle -4.8901e-014 3.02153e-014
rhumerus -33.5129 15.2424 -80.2161
rradius 82.2214
rwrist -3.7686
rhand -30.3855 17.2943
rfingers 7.12502
rthumb -3.68972 -12.6535
lclavicle -4.8901e-014 3.02153e-014
lhumerus -54.2906 26.4134 56.5932
lradius 114.948
lwrist 203.259
lhand -10.8086 11.3804
lfingers 7.12502
lthumb 15.2048 40.8017
rfemur 39.1042 13.6534 12.2601
rtibia 17.9382
rfoot -7.20734 -0.0562206
rtoes -9.87092
lfemur -78.3062 2.93493 -21.0569
ltibia 55.8002
lfoot -0.406291 4.04603
ltoes -20.9875
100
root 4.29382 17.1414 -0.137872 -841.16 -73.2586 791.682
lowerback 53.7994 6.95367 -1.97687
upperback 12.3776 2.51867 -11.2104
thorax -7.02548 0.448768 -12.5107
lowerneck 8.22567 2.62974 -5.18828
upperneck 22.0468 0.707372 10.4567
head 5.16448 0.0910973 4.19562
rclavicle 3.57812e-014 -4.29375e-014
rhumerus -34.4429 14.4905 -80.7738
rradius 83.0854
rwrist -3.8826
rhand -30.3166 17.7032
rfingers 7.12502
rthumb -3.62315 -12.2458
lclavicle 3.57812e-014 -4.29375e-014
lhumerus -54.1225 27.4612 57.2851
lradius 115.421
lwrist 203.628
lhand -10.4903 11.9497
lfingers 7.12502
lthumb 15.5114 41.3475
rfemur 40.515 13.3596 12.7419
rtibia 16.0094
rfoot -6.52208 -0.600305
rtoes -9.72035
lfemur -76.7215 2.43275 -19.6236
ltibia 50.7782
lfoot -4.26078 3.58027
ltoes -21.5974
101
root 4.26227 17.1663 -0.156812 -840.917 -73.6269 791.242
lowerback 54.1507 6.95877 -1.66474
upperback 12.3752 2.68446 -11.0655
thorax -7.02606 0.533678 -12.5777
lowerneck 8.47149 2.80007 -4.90836
upperneck 22.3161 0.875297 10.5787
head 5.19684 0.187079 4.19254
rclavicle -1.47101e-014 8.42847e-014
rhumerus -35.3183 13.7688 -81.3951
rradius 83.6999
rwrist -3.86531
rhand -30.4473 18.0981
rfingers 7.12502
rthumb -3.74946 -11.8486
lclavicle -1.47101e-014 8.42847e-014
lhumerus -53.9394 28.4151 57.9877
lradius 115.956
lwrist 204.02
lhand -10.2314 12.4732
lfingers 7.12502
lthumb 15.7608 41.8515
rfemur 41.933 12.8474 13.05
rtibia 13.9664
rfoot -5.70258 -0.984535
rtoes -9.66821
lfemur -75.3114 1.99699 -18.2984
ltibia 46.5332
lfoot -7.20285 3.47044
ltoes -22.687
102
root 4.23297 17.1891 -0.176147 -840.754 -74.0169 790.81
lowerback 54.4964 6.95591 -1.32767
upperback 12.4106 2.8562 -10.9119
thorax -6.97981 0.620973 -12.6459
lowerneck 8.83847 2.99665 -4.46614
upperneck 22.5307 1.1028 10.5895
head 5.19346 0.314805 4.12315
rclavicle 6.79844e-014 -6.36111e-014
rhumerus -36.0637 13.0738 -82.1011
rradius 84.0162
rwrist -3.70543
rhand -30.7653 18.5055
rfingers 7.12502
rthumb -4.05646 -11.4356
lclavicle 6.79844e-014 -6.36111e-014
lhumerus -53.714 29.2663 58.7559
lradius 116.57
lwrist 204.384
lhand -9.98102 12.9133
lfingers 7.12502
lthumb 16.0019 42.2724
rfemur 43.3793 12.1753 13.2215
rtibia 11.9064
rfoot -4.86912 -1.25831
rtoes -9.59248
lfemur -74.1414 1.70413 -17.189
ltibia 43.2766
lfoot -9.83743 3.49568
ltoes -25.0937
103
root 4.19467 17.1974 -0.193585 -840.55 -74.4023 790.286
lowerback 54.8196 6.94784 -1.00752
upperback 12.4688 3.02012 -10.7361
thorax -6.90494 0.703118 -12.6735
lowerneck 9.32756 3.22088 -3.93426
upperneck 22.7071 1.38751 10.5064
head 5.15989 0.468384 4.00566
rclavicle -2.06736e-014 2.70347e-014
rhumerus -36.7512 12.5012 -82.878
rradius 84.0843
rwrist -3.58367
rhand -31.2417 18.9584
rfingers 7.12502
rthumb -4.51652 -10.9735
lclavicle -2.06736e-014 2.70347e-014
lhumerus -53.5262 29.9806 59.5594
lradius 117.228
lwrist 204.898
lhand -9.70834 13.2938
lfingers 7.12502
lthumb 16.2645 42.6316
rfemur 44.822 11.3816 13.2547
rtibia 9.94534
rfoot -4.08743 -1.4726
rtoes -9.18693
lfemur -73.1987 1.72393 -16.7444
ltibia 41.286
lfoot -11.364 3.3808
ltoes -25.51
104
root 4.15224 17.1963 -0.209257 -840.312 -74.7366 789.714
lowerback 55.1036 6.9524 -0.725588
upperback 12.5464 3.17993 -10.5711
thorax -6.80435 0.782561 -12.6905
lowerneck 9.81347 3.46324 -3.2461
upperneck 23.0497 1.70179 10.3177
head 5.18614 0.642561 3.83054
rclavicle 1.47101e-014 1.59028e-014
rhumerus -37.3009 11.9885 -83.734
rradius 83.8573
rwrist -3.51499
rhand -31.7767 19.3838
rfingers 7.12502
rthumb -5.03316 -10.5364
lclavicle 1.47101e-014 1.59028e-014
lhumerus -53.3559 30.5671 60.4131
lradius 117.977
lwrist 205.533
lhand -9.53504 13.5339
lfingers 7.12502
lthumb 16.4313 42.858
rfemur 46.0923 10.6275 13.2097
rtibia 8.36328
rfoot -3.55005 -1.7679
rtoes -8.3762
lfemur -72.6593 2.03387 -16.8721
ltibia 40.6508
lfoot -11.5483 3.10911
ltoes -24.0494
105
root 4.10708 17.1896 -0.223262 -839.98 -75.0459 789.073
lowerback 55.2672 6.9506 -0.473093
upperback 12.6639 3.32991 -10.4062
thorax -6.65017 0.857934 -12.682
lowerneck 10.2319 3.73105 -2.49715
upperneck 23.5841 2.04342 10.0765
head 5.28963 0.834784 3.63314
rclavicle 2.42517e-014 -1.43125e-014
rhumerus -37.6953 11.6003 -84.6279
rradius 83.3727
rwrist -3.646
rhand -32.299 19.7836
rfingers 7.12502
rthumb -5.53745 -10.1241
lclavicle 2.42517e-014 -1.43125e-014
lhumerus -53.1569 30.9631 61.3107
lradius 118.768
lwrist 206.352
lhand -9.33051 13.6991
lfingers 7.12502
lthumb 16.6283 43.0068
rfemur 46.8903 9.88582 13.1143
rtibia 7.62046
rfoot -3.40492 -2.01491
rtoes -7.4982
lfemur -72.5859 2.57601 -17.4738
ltibia 41.3477
lfoot -11.1458 2.77017
ltoes -23.2794
106
root 4.05898 17.1761 -0.234763 -839.475 -75.259 788.305
lowerback 55.3079 6.96759 -0.298975
upperback 12.8161 3.46795 -10.2584
thorax -6.45019 0.927613 -12.6446
lowerneck 10.6769 4.00258 -1.70819
upperneck 24.124 2.39963 9.80771
head 5.39744 1.03661 3.41976
rclavicle 3.26007e-014 -2.70347e-014
rhumerus -37.9569 11.3151 -85.5149
rradius 82.7212
rwrist -4.06014
rhand -32.653 20.1429
rfingers 7.12502
rthumb -5.87916 -9.75557
lclavicle 3.26007e-014 -2.70347e-014
lhumerus -52.7247 31.1218 62.2433
lradius 119.41
lwrist 207.355
lhand -9.12867 13.7873
lfingers 7.12502
lthumb 16.8226 43.0786
rfemur 47.103 9.1793 12.895
rtibia 7.91575
rfoot -3.77594 -2.18208
rtoes -6.54186
lfemur -72.7884 3.28017 -18.5204
ltibia 43.0986
lfoot -10.3826 2.82427
ltoes -22.0713
107
root 4.01022 17.1581 -0.244023 -838.873 -75.4005 787.535
lowerback 55.1934 6.99813 -0.187602
upperback 12.9877 3.59997 -10.1351
thorax -6.21863 0.995668 -12.5968
lowerneck 11.2352 4.26931 -0.896703
upperneck 24.4646 2.78184 9.5328
head 5.42896 1.25106 3.19422
rclavicle 4.57205e-014 -1.09729e-013
rhumerus -38.0673 10.9833 -86.4792
rradius 81.8012
rwrist -4.58926
rhand -32.8814 20.5176
rfingers 7.12502
rthumb -6.0997 -9.37458
lclavicle 4.57205e-014 -1.09729e-013
lhumerus -52.0745 30.9462 63.1765
lradius 119.898
lwrist 208.402
lhand -8.81209 13.8948
lfingers 7.12502
lthumb 17.1273 43.1599
rfemur 46.6432 8.51728 12.5838
rtibia 9.27688
rfoot -4.61509 -2.17921
rtoes -5.76248
lfemur -73.2455 4.03146 -19.725
ltibia 45.6087
lfoot -9.45132 3.34552
ltoes -20.7245
